<svg width="687.000000" height="485.000000" viewBox="0 0 687 485" fill="none" xmlns="http://www.w3.org/2000/svg" xmlns:xlink="http://www.w3.org/1999/xlink">
	<desc>
			Created with Pixso.
	</desc>
	<defs>
		<clipPath id="clip21_186">
			<rect id="Designers" width="687.000000" height="485.000000" fill="white" fill-opacity="0"/>
		</clipPath>
	</defs>
	<rect id="Designers" width="687.000000" height="485.000000" fill="#FFFFFF" fill-opacity="0"/>
	<g clip-path="url(#clip21_186)">
		<path id="Background" d="M226.306 49.3086L441.297 49.3086C445.76 49.3086 449.379 52.9277 449.379 57.3921L449.379 381.129C449.379 385.594 445.76 389.213 441.297 389.213L226.306 389.213C221.842 389.213 218.224 385.594 218.224 381.129L218.224 57.3921C218.224 52.9277 221.842 49.3086 226.306 49.3086Z" fill="#F2F6FB" fill-opacity="1.000000" fill-rule="evenodd"/>
		<path id="Burron" d="M236.409 62.0503C236.409 63.9473 234.69 65.4854 232.57 65.4854C230.449 65.4854 228.73 63.9473 228.73 62.0503C228.73 60.1528 230.449 58.6147 232.57 58.6147C234.69 58.6147 236.409 60.1528 236.409 62.0503Z" fill="#FF5645" fill-opacity="1.000000" fill-rule="evenodd"/>
		<path id="Burron" d="M248.937 62.0503C248.937 63.9473 247.308 65.4854 245.299 65.4854C243.291 65.4854 241.662 63.9473 241.662 62.0503C241.662 60.1528 243.291 58.6147 245.299 58.6147C247.308 58.6147 248.937 60.1528 248.937 62.0503Z" fill="#FFCB3D" fill-opacity="1.000000" fill-rule="evenodd"/>
		<path id="Burron" d="M261.06 62.0503C261.06 63.9473 259.522 65.4854 257.625 65.4854C255.728 65.4854 254.19 63.9473 254.19 62.0503C254.19 60.1528 255.728 58.6147 257.625 58.6147C259.522 58.6147 261.06 60.1528 261.06 62.0503Z" fill="#3ABF7C" fill-opacity="1.000000" fill-rule="evenodd"/>
		<path id="Combined Shape" d="M316.02 58.6147L351.986 58.6147C352.656 58.6147 353.199 59.1577 353.199 59.8271L353.199 64.2729C353.199 64.9429 352.656 65.4854 351.986 65.4854L316.02 65.4854C315.35 65.4854 314.807 64.9429 314.807 64.2729L314.807 59.8271C314.807 59.1577 315.35 58.6147 316.02 58.6147ZM418.666 58.6147L438.063 58.6147C438.733 58.6147 439.276 59.1577 439.276 59.8271L439.276 64.2729C439.276 64.9429 438.733 65.4854 438.063 65.4854L418.666 65.4854C417.996 65.4854 417.453 64.9429 417.453 64.2729L417.453 59.8271C417.453 59.1577 417.996 58.6147 418.666 58.6147ZM391.994 58.6147L410.988 58.6147C411.657 58.6147 412.2 59.1577 412.2 59.8271L412.2 64.2729C412.2 64.9429 411.657 65.4854 410.988 65.4854L391.994 65.4854C391.324 65.4854 390.782 64.9429 390.782 64.2729L390.782 59.8271C390.782 59.1577 391.324 58.6147 391.994 58.6147ZM289.752 166.245L378.658 166.245C379.104 166.245 379.466 166.607 379.466 167.053L379.466 173.934C379.466 174.38 379.104 174.742 378.658 174.742L289.752 174.742C289.306 174.742 288.944 174.38 288.944 173.934L288.944 167.053C288.944 166.607 289.306 166.245 289.752 166.245ZM273.588 152.488L394.015 152.488C394.461 152.488 394.823 152.85 394.823 153.296L394.823 160.177C394.823 160.623 394.461 160.985 394.015 160.985L273.588 160.985C273.141 160.985 272.779 160.623 272.779 160.177L272.779 153.296C272.779 152.85 273.141 152.488 273.588 152.488ZM232.368 197.231C232.368 196.339 233.095 195.617 233.985 195.617L434.426 195.617C435.319 195.617 436.043 196.339 436.043 197.231L436.043 328.338C436.043 329.229 435.315 329.952 434.426 329.952L233.985 329.952C233.092 329.952 232.368 329.229 232.368 328.338L232.368 197.231ZM233.632 340.308L326.071 340.308C326.792 340.308 327.053 340.383 327.317 340.524C327.58 340.665 327.787 340.872 327.927 341.135C328.068 341.399 328.143 341.66 328.143 342.381L328.143 369.797C328.143 370.517 328.068 370.779 327.927 371.042C327.787 371.306 327.58 371.512 327.317 371.653C327.053 371.794 326.792 371.869 326.071 371.869L233.632 371.869C232.911 371.869 232.65 371.794 232.386 371.653C232.123 371.512 231.916 371.306 231.775 371.042C231.634 370.779 231.559 370.517 231.559 369.797L231.559 342.381C231.559 341.66 231.634 341.399 231.775 341.135C231.916 340.872 232.123 340.665 232.386 340.524C232.65 340.383 232.911 340.308 233.632 340.308ZM341.531 340.308L433.971 340.308C434.691 340.308 434.952 340.383 435.216 340.524C435.479 340.665 435.686 340.872 435.827 341.135C435.968 341.399 436.043 341.66 436.043 342.381L436.043 369.797C436.043 370.517 435.968 370.779 435.827 371.042C435.686 371.306 435.479 371.512 435.216 371.653C434.952 371.794 434.691 371.869 433.971 371.869L341.531 371.869C340.81 371.869 340.549 371.794 340.286 371.653C340.022 371.512 339.816 371.306 339.675 371.042C339.534 370.779 339.459 370.517 339.459 369.797L339.459 342.381C339.459 341.66 339.534 341.399 339.675 341.135C339.816 340.872 340.022 340.665 340.286 340.524C340.549 340.383 340.81 340.308 341.531 340.308Z" fill="#E1E5F0" fill-opacity="1.000000" fill-rule="nonzero"/>
		<path id="Oval 2" d="M378.815 230.191C378.815 236.117 374.032 240.921 368.131 240.921C362.231 240.921 357.448 236.117 357.448 230.191C357.448 224.266 362.231 219.462 368.131 219.462C374.032 219.462 378.815 224.266 378.815 230.191Z" fill="#F2F6FB" fill-opacity="1.000000" fill-rule="evenodd"/>
		<path id="Object" d="M334.003 142.331L334.003 140.714C336.251 140.714 338.459 140.421 340.588 139.847L341.009 141.408C338.743 142.019 336.393 142.331 334.003 142.331ZM347.531 138.683L346.716 137.286C348.636 136.166 350.401 134.794 351.965 133.213L353.114 134.35C351.451 136.032 349.573 137.49 347.531 138.683ZM357.383 128.715L355.978 127.916C357.075 125.986 357.913 123.917 358.468 121.758L360.033 122.161C359.443 124.459 358.551 126.661 357.383 128.715ZM360.875 115.108L359.258 115.128C359.23 112.882 358.908 110.677 358.307 108.555L359.862 108.114C360.502 110.373 360.845 112.719 360.875 115.108ZM357.051 101.624L355.665 102.457C354.52 100.551 353.126 98.8032 351.525 97.2603L352.646 96.0962C354.35 97.7373 355.832 99.5967 357.051 101.624ZM346.959 91.9009L346.179 93.3169C344.235 92.2451 342.157 91.4336 339.99 90.9072L340.372 89.3364C342.678 89.897 344.891 90.7607 346.959 91.9009ZM333.311 88.5854L333.352 90.2017C331.107 90.2583 328.906 90.6089 326.791 91.2383L326.33 89.6885C328.582 89.0186 330.923 88.646 333.311 88.5854ZM319.879 92.584L320.729 93.959C318.839 95.1289 317.109 96.5449 315.587 98.1665L314.408 97.0596C316.028 95.335 317.868 93.8291 319.879 92.584ZM310.287 102.802L311.713 103.564C310.667 105.521 309.883 107.61 309.384 109.784L307.809 109.423C308.339 107.108 309.174 104.885 310.287 102.802ZM307.149 116.494L308.764 116.432C308.85 118.675 309.229 120.872 309.886 122.98L308.342 123.461C307.643 121.217 307.24 118.88 307.149 116.494ZM311.321 129.874L312.684 129.005C313.878 130.88 315.316 132.592 316.957 134.094L315.865 135.286C314.12 133.689 312.591 131.869 311.321 129.874ZM321.659 139.333L322.402 137.898C324.372 138.918 326.47 139.676 328.651 140.146L328.31 141.727C325.989 141.226 323.755 140.419 321.659 139.333ZM350.921 305.891L336.9 305.954L336.939 305.891L275.697 305.891C271.903 305.891 270.459 303.283 272.471 300.066L314.323 233.159C316.334 229.942 319.665 229.896 321.763 233.063L352.862 280.384L363.863 262.76C365.637 259.919 368.579 259.874 370.436 262.663L395.906 300.907C397.763 303.694 396.572 305.71 393.218 305.606L374.592 305.784L368.711 305.81L368.76 305.891C368.76 305.891 365.687 305.891 361.891 305.891L350.921 305.891Z" fill="#3C41FF" fill-opacity="1.000000" fill-rule="nonzero"/>
		<g opacity="0.176986">
			<path id="Rectangle 2" d="M368.594 305.982C368.594 305.982 365.521 305.982 361.725 305.982L275.531 305.982C271.737 305.982 270.293 303.375 272.305 300.158L314.156 233.25C316.168 230.034 319.499 229.988 321.597 233.155L357.788 288.225L368.594 305.982Z" fill="#444444" fill-opacity="1.000000" fill-rule="nonzero"/>
		</g>
		<path id="Base" d="M578.697 437.713L537.274 437.713C536.305 437.713 535.456 437.013 535.456 436.174L535.456 435.614C535.456 434.775 536.264 434.075 537.274 434.075L578.697 434.075C579.666 434.075 580.515 434.775 580.515 435.614L580.515 436.174C580.515 437.013 579.707 437.713 578.697 437.713ZM483.527 434.075C484.531 434.075 485.345 434.89 485.345 435.894C485.345 436.898 484.531 437.713 483.527 437.713L417.656 437.713C416.651 437.713 415.837 436.898 415.837 435.894C415.837 434.89 416.651 434.075 417.656 434.075L483.527 434.075Z" fill="#9105C6" fill-opacity="1.000000" fill-rule="nonzero"/>
		<path id="Shoes" d="M578.917 434.087C578.845 434.079 578.771 434.075 578.697 434.075L537.413 434.075L540.68 413.457L569.615 409.537L578.917 434.087ZM483.768 434.091C483.689 434.08 483.608 434.075 483.527 434.075L417.942 434.075C417.898 433.854 417.876 433.575 417.883 433.213C417.928 432.932 417.934 432.608 418.02 432.286C418.539 430.355 419.167 429.072 421.006 427.932C422.845 426.792 424.722 425.774 426.678 424.878C433.891 421.487 436.355 421.53 441.098 418.42C443.061 417.12 444.866 415.616 446.551 413.988C447.675 412.902 449.969 411.139 453.434 408.698L484.59 409.396L483.768 434.091Z" fill="#474961" fill-opacity="1.000000" fill-rule="nonzero"/>
		<path id="Vector" d="M527.619 186.409C530.695 192.397 539.02 210.98 546.452 248.809C547.064 251.947 547.651 255.002 548.215 257.969L548.272 257.901C558.457 296.283 565.527 323.152 569.481 338.51C573.543 354.284 567.91 354.038 570.99 367.308C572.766 374.959 578.716 381.111 578.664 389.078C578.656 390.336 578.687 392.853 578.755 396.627C578.878 403.367 573.953 409.14 567.278 410.078L540.316 413.868C533.022 414.893 526.279 409.811 525.254 402.516C525.244 402.449 525.235 402.382 525.227 402.314C524.499 396.496 524.131 393.037 524.122 391.937C524.103 389.658 524.074 387.584 524.03 385.694C522.477 379.335 520.858 372.718 519.555 367.384C517.797 364.668 515.729 360.914 514.099 354.84C513.027 350.844 510.59 335.292 506.787 308.181C506.714 307.817 506.575 306.697 506.37 304.819L501.047 285.225C500.825 287.514 500.599 289.829 500.37 292.164C500.839 324.636 500.827 342.878 500.333 346.89C498.778 359.515 494.126 362.991 493.99 366.958C493.857 370.845 494.448 376.508 495.57 385.021C495.714 386.111 495.831 389.587 495.92 395.451C495.921 395.519 495.922 395.586 495.922 395.654C495.922 401.558 492.087 406.566 486.772 408.322C483.429 411.366 478.046 409.05 463.91 409.146C463.91 409.146 461.735 409.165 458.863 408.992L455.359 408.992C453.285 408.992 451.311 408.516 449.549 407.661C447.878 407.193 446.495 406.578 445.725 405.769C445.082 405.074 444.676 404.286 444.676 404.286C444.484 403.856 444.346 403.433 444.247 403.032C443.13 401.351 442.38 399.394 442.121 397.27C441.664 393.522 441.344 391.026 441.161 389.781C440.002 381.899 445.037 374.979 445.731 367.155C446.934 353.585 441.391 354.613 443.218 338.428C444.98 322.815 448.315 304.793 453.222 284.363C456.06 252.185 459.795 216.03 463.91 203.881C463.979 203.664 466.545 195.052 470.256 188.973C470.369 189.095 470.487 189.212 470.609 189.324C471.073 189.761 471.535 190.076 471.996 190.311C472.919 190.86 473.684 191.049 473.684 191.049C473.684 191.049 473.722 191.049 473.761 191.088C473.761 191.088 498.537 197.285 523.12 190.227L523.195 190.185C523.195 190.185 523.953 189.97 524.856 189.388C525.271 189.138 525.759 188.766 526.209 188.354C526.772 187.803 527.237 187.14 527.619 186.409Z" fill="#8F4AFF" fill-opacity="1.000000" fill-rule="nonzero"/>
		<g opacity="0.176986">
			<path id="Shadow Legs" d="M475.557 191.483L488.493 239.187L501.035 285.353C500.817 287.6 500.595 289.872 500.37 292.164C500.839 324.636 500.827 342.878 500.333 346.89C498.778 359.515 494.126 362.991 493.99 366.958C493.857 370.845 494.448 376.508 495.57 385.021C495.714 386.111 495.831 389.587 495.92 395.451C495.921 395.519 495.922 395.586 495.922 395.654C495.922 401.558 492.087 406.566 486.772 408.322C483.429 411.366 478.046 409.05 463.91 409.146C463.91 409.146 461.735 409.165 458.863 408.992L455.359 408.992C453.285 408.992 451.311 408.516 449.549 407.661C447.878 407.193 446.495 406.578 445.725 405.769C445.082 405.074 444.676 404.286 444.676 404.286C444.484 403.856 444.346 403.433 444.247 403.032C443.13 401.351 442.38 399.394 442.121 397.27C441.664 393.522 441.344 391.026 441.161 389.781C440.002 381.899 445.037 374.979 445.731 367.155C446.934 353.585 441.391 354.613 443.218 338.428C444.98 322.815 448.315 304.793 453.222 284.363C456.06 252.185 459.795 216.03 463.91 203.881C463.979 203.664 466.545 195.052 470.256 188.973C470.369 189.095 470.487 189.212 470.609 189.324C471.073 189.761 471.535 190.076 471.996 190.311C472.919 190.86 473.684 191.049 473.684 191.049C473.684 191.049 473.722 191.049 473.761 191.088C473.761 191.088 474.393 191.247 475.557 191.483Z" fill="#444444" fill-opacity="1.000000" fill-rule="nonzero"/>
		</g>
		<path id="T shirt" d="M528.049 135.672C528.095 136.137 528.141 136.616 528.185 137.111L528.187 137.232L528.298 139.211C528.949 161.23 529.274 171.128 529.456 175.006C529.456 175.006 529.425 175.411 529.473 176.016C529.58 177.793 529.746 185.106 526.377 188.399C525.928 188.811 525.439 189.184 525.025 189.433C524.122 190.015 523.364 190.23 523.364 190.23L523.289 190.272C498.706 197.331 473.93 191.134 473.93 191.134C473.511 191.023 473.107 190.91 472.338 190.526C471.583 190.15 470.865 189.595 470.635 189.379C467.191 186.206 467.244 178.881 467.289 177.102C467.28 176.536 467.272 176.091 467.272 176.091C467.315 172.393 467.3 163.411 467.199 143.925C457.547 143.03 453.64 140.246 455.476 135.572C459.649 124.957 462.413 114.771 478.956 113.593C483.015 111.569 487.447 110.892 490.532 110.686C492.319 110.573 493.652 110.59 494.185 110.622C494.413 110.618 494.719 110.653 495.29 110.683C495.862 110.714 496.509 110.743 497.233 110.771C497.955 110.718 498.602 110.666 499.172 110.615C499.742 110.565 500.008 110.52 500.274 110.515C500.844 110.465 502.137 110.402 503.927 110.452C504.354 110.465 504.807 110.487 505.281 110.519C505.521 110.463 505.763 110.409 506.01 110.356C523.012 106.686 528.388 115.978 535.291 125.321C538.054 129.061 535.64 132.511 528.049 135.672Z" fill="#F0549E" fill-opacity="1.000000" fill-rule="nonzero"/>
		<g opacity="0.176986">
			<path id="Shadow T shirt" d="M478.699 113.592C476.337 114.783 474.106 116.433 472.346 118.715C471.564 119.74 470.563 121.293 469.803 123.53C469.694 123.855 469.585 124.14 469.477 124.465C469.222 125.157 468.677 126.622 468.21 128.206C467.708 129.994 467.31 133.396 467.05 138.13L467.052 138.251L467.011 140.233C467.018 141.481 467.024 142.69 467.03 143.861C457.616 142.933 453.818 140.159 455.634 135.539C459.771 125.012 462.523 114.908 478.699 113.592Z" fill="#444444" fill-opacity="1.000000" fill-rule="nonzero"/>
		</g>
		<path id="Skin" d="M525.258 234.543C524.921 234.805 524.721 234.922 524.721 234.922C519.416 234.031 527.001 214.38 529.262 208.818L510.22 140.693C522.041 138.194 529.839 135.469 533.613 132.52C543.879 173.833 549.427 200.332 550.255 212.013C550.318 212.384 550.357 212.781 550.371 213.204C550.592 220.002 548.333 230.406 543.595 244.416C543.557 244.498 531.234 250.55 522.563 245.433L525.258 234.543ZM473.401 75.0542C473.418 75.0312 473.435 75.0088 473.452 74.9854C476.999 71.0098 483.529 71.1274 486.469 71.7612C486.826 71.8398 488.096 72.1357 489.932 72.4507C490.928 72.6367 491.732 72.7212 492.21 72.812C498.173 73.6826 500.62 73.2085 503.465 75.1328C503.999 75.4736 505.209 76.332 506.186 77.8574C508.943 82.1704 507.639 87.2354 507.277 88.7412C506.072 93.2476 503.124 95.7827 502.198 96.8638C501.508 97.6812 500.552 98.5938 499.621 99.4185L500.522 112.463C500.531 112.746 500.42 113.032 500.182 113.162C499.155 113.845 497.686 114.624 495.842 115.093C492.517 115.978 489.629 115.512 487.997 115.084C487.671 115.015 487.417 114.7 487.406 114.376L486.918 105.823C486.565 105.915 486.187 106.011 485.785 106.111C482.233 107.038 482.447 106.938 482.197 106.994C479.598 107.371 477.436 107.062 477.042 106.939C475.608 106.667 474.208 105.3 473.057 103.107C471.495 100.179 470.295 95.7451 469.948 90.5479C469.863 89.8071 469.899 89.0796 469.934 88.3516L470.53 81.1396C470.659 79.5278 471.189 77.958 472.145 76.5957C472.534 75.9863 472.911 75.4976 473.359 75.0977C473.373 75.083 473.387 75.0684 473.401 75.0542ZM455.511 139.532C456.796 141.853 460.692 143.315 467.199 143.919C467.27 157.551 467.299 166.042 467.295 171.18C457.59 183.134 451.097 181.269 451.097 181.269C446.574 181.465 443.116 179.408 441.811 178.618C430.426 171.751 408.814 133.536 405.086 126.841C400.166 126.167 395.572 124.874 391.305 122.962C384.5 119.912 381.758 117.019 383.078 114.282L417.953 116.534L418.049 116.468L448.294 148.303C451.464 144.935 453.617 142.184 455.511 139.532Z" fill="#F2A98A" fill-opacity="1.000000" fill-rule="nonzero"/>
		<g opacity="0.200000">
			<path id="Shadow Skin" d="M455.641 139.532C456.926 141.853 460.823 143.315 467.33 143.919C467.4 157.551 467.429 166.042 467.425 171.18C457.72 183.134 451.227 181.269 451.227 181.269C446.704 181.465 443.246 179.408 441.941 178.618C430.556 171.751 408.944 133.536 405.217 126.841C400.296 126.167 395.702 124.874 391.435 122.962C384.63 119.912 381.888 117.019 383.209 114.282L418.083 116.534L418.179 116.468L448.424 148.303C451.594 144.935 453.747 142.184 455.641 139.532Z" fill="#8C2A00" fill-opacity="1.000000" fill-rule="nonzero"/>
		</g>
		<path id="Shadow" d="M486.263 105.964L492.217 104.064L487.347 111.507L486.263 105.964Z" fill="#482D1F" fill-opacity="1.000000" fill-rule="nonzero"/>
		<path id="Hair" d="M500.779 89.6362C500.821 88.6567 500.62 87.6519 500.093 86.7266C498.997 84.7827 496.691 83.5244 494.695 83.9648C493.572 84.2124 492.759 84.9805 492.671 85.0522C491.442 86.3047 491.049 87.7266 491.049 87.7266L490.851 88.6704C476.368 83.1445 473.56 76.1699 472.805 75.7305C473.035 75.4702 473.262 75.25 473.403 75.0615C476.99 71.0903 483.641 71.2202 486.621 71.8589C487.019 71.9414 488.288 72.2373 490.164 72.5566C491.201 72.7466 492.005 72.8311 492.483 72.9219C498.566 73.8052 501.054 73.3354 503.939 75.2642C504.472 75.6045 505.722 76.4678 506.7 77.9927C509.749 82.6211 508.36 87.7173 507.831 88.8809C507.461 89.6958 506.88 90.2036 506.88 90.2036C504.739 89.8823 502.744 89.7402 500.779 89.6362ZM468.907 86.3398C468.508 86.2383 468.414 85.707 468.711 85.4395C469.091 85.1357 469.754 84.8467 470.561 84.8887C472.216 84.9756 473.934 86.1582 472.053 86.5454C470.948 86.771 469.665 86.5415 468.907 86.3398ZM477.206 87.0581C476.806 86.9565 476.713 86.4253 477.05 86.1597C477.43 85.856 478.093 85.5669 478.941 85.6113C480.595 85.6982 482.312 86.9214 480.432 87.2681C479.245 87.5293 477.964 87.2598 477.206 87.0581Z" fill="#482D1F" fill-opacity="1.000000" fill-rule="nonzero"/>
		<path id="Eyes" d="M471.907 89.3301C471.831 90.0142 471.65 91.1382 471.225 91.5205C470.508 92.0898 469.726 90.0254 470.316 88.8018C470.545 88.2876 470.832 88.2217 471.153 88.2788C471.633 88.3848 471.932 88.8457 471.907 89.3301ZM479.135 89.6279C479.139 90.3164 479.08 91.4463 478.651 91.9097C478.01 92.564 476.981 90.5674 477.453 89.2969C477.641 88.7808 477.93 88.6743 478.253 88.6914C478.738 88.7168 479.12 89.1416 479.135 89.6279Z" fill="#482D1F" fill-opacity="1.000000" fill-rule="nonzero"/>
		<path id="Mouth" d="M475.392 97.7285C475.679 97.6626 476.375 97.4971 476.52 97.0591C476.524 96.9785 476.571 96.8594 476.535 96.7769C476.388 96.4858 475.895 96.6221 475.167 96.624C473.871 96.6372 472.828 96.4609 472.828 96.4609C472.828 96.4609 473.068 97.2832 473.257 97.5356C473.629 98.1626 474.942 97.8267 475.392 97.7285Z" fill="#482D1F" fill-opacity="1.000000" fill-rule="nonzero"/>
		<path id="Nose" d="M473.073 89.4722L473.08 89.4165L473.074 89.4443L473.073 89.4722ZM472.248 93.7031C472.148 94.1548 472.478 94.6201 472.934 94.7207C473.034 94.7354 473.034 94.7354 473.099 94.7441C473.777 94.832 474.202 94.8735 474.932 94.9121C475.155 94.9238 475.346 94.7524 475.357 94.5298C475.369 94.3066 475.198 94.1167 474.975 94.105C474.267 94.0679 473.862 94.0278 473.203 93.9424L473.073 93.9253C473.072 93.9233 473.038 93.875 473.039 93.8677L473.873 89.5703L473.88 89.5146L474.005 87.1333C474.016 86.9102 473.845 86.7202 473.622 86.7085C473.399 86.6968 473.209 86.8682 473.198 87.0908L473.074 89.4443L472.248 93.7031Z" fill="#482D1F" fill-opacity="1.000000" fill-rule="nonzero"/>
		<path id="Shadow" d="M500.752 89.0122C500.812 90.2095 500.465 91.4692 499.823 92.4438C499.036 93.6753 498.047 94.2876 496.809 94.709C496.597 94.7808 496.484 95.0103 496.556 95.2217C496.628 95.4331 496.857 95.5459 497.069 95.4741C497.613 95.2891 498.05 95.1011 498.566 94.7812C499.327 94.3105 499.987 93.6885 500.5 92.8843C501.234 91.771 501.628 90.3413 501.559 88.9717C501.548 88.7485 501.358 88.5771 501.135 88.5884C500.912 88.5996 500.741 88.7891 500.752 89.0122Z" fill="#482D1F" fill-opacity="1.000000" fill-rule="nonzero"/>
		<path id="Fingers" d="M531.631 232.524C531.695 232.195 532.013 231.98 532.342 232.045C532.67 232.109 532.885 232.427 532.821 232.756C532.418 234.82 532.055 236.414 531.205 239.955C530.36 243.479 529.999 245.062 529.601 247.104C529.537 247.432 529.219 247.646 528.891 247.583C528.562 247.519 528.347 247.2 528.411 246.872C528.814 244.808 529.177 243.213 530.027 239.672C530.872 236.148 531.233 234.565 531.631 232.524ZM539.827 230.745C539.911 230.421 540.242 230.227 540.566 230.311C540.89 230.396 541.085 230.727 541 231.05C540.423 233.271 540.015 235.001 539.135 238.863C538.253 242.736 537.842 244.475 537.261 246.71C537.177 247.035 536.846 247.229 536.522 247.145C536.198 247.061 536.003 246.729 536.088 246.405C536.665 244.186 537.073 242.455 537.953 238.593C538.835 234.72 539.246 232.981 539.827 230.745Z" fill="#482D1F" fill-opacity="1.000000" fill-rule="nonzero"/>
		<path id="Oval" d="M429.173 97.3071C429.173 111.705 417.593 123.376 403.309 123.376C389.025 123.376 377.446 111.705 377.446 97.3071C377.446 82.9097 389.025 71.2383 403.309 71.2383C417.593 71.2383 429.173 82.9097 429.173 97.3071Z" fill="#474BFF" fill-opacity="1.000000" fill-rule="evenodd"/>
		<path id="Color" d="M403.38 96.6982C400.526 96.6982 398.213 94.4136 398.213 91.5952C398.213 88.7764 400.526 86.4917 403.38 86.4917C406.233 86.4917 408.546 88.7764 408.546 91.5952C408.546 94.4136 406.233 96.6982 403.38 96.6982ZM403.38 99.25C408.552 99.25 412.744 103.392 412.744 108.5L394.015 108.5C394.015 103.392 398.207 99.25 403.38 99.25Z" fill="#F2F6FB" fill-opacity="1.000000" fill-rule="nonzero"/>
		<path id="Combined Shape" d="M127.418 347.831L127.418 347.907C127.418 348.876 128.267 349.685 129.237 349.685L159.748 349.685L148.998 369.408C141.32 383.473 133.682 397.498 126.044 411.563L113.395 434.762C112.951 435.57 113.315 436.621 114.163 437.106L114.325 437.187C115.173 437.672 116.265 437.389 116.669 436.621L163.991 349.685L195.512 349.685L242.834 436.621C243.238 437.389 244.329 437.632 245.178 437.187L245.34 437.106C246.188 436.621 246.552 435.57 246.108 434.762L233.459 411.563C225.781 397.498 218.143 383.473 210.505 369.408L199.755 349.685L240.208 349.685C241.218 349.685 242.026 348.876 242.026 347.907L242.026 347.705C242.026 346.734 241.177 345.926 240.208 345.926L212.728 345.926C194.825 345.926 176.882 345.926 158.939 345.926L130.986 345.926L127.58 318.362C125.236 299.609 122.933 280.815 120.589 262.021L116.75 230.981C116.628 229.89 115.699 229.082 114.689 229.203L114.487 229.243C113.517 229.365 112.83 230.375 112.951 231.385L127.378 347.624C127.388 347.694 127.402 347.764 127.418 347.831Z" fill="#D8DEED" fill-opacity="1.000000" fill-rule="nonzero"/>
		<path id="Shoes" d="M215.286 434.233C215.038 434.108 214.76 434.038 214.468 434.038L192.616 434.038L152.513 404.157L167.709 382.867L192.036 400.529C193.37 405.056 194.744 409.583 196.118 414.15C196.846 416.534 197.573 418.878 198.3 421.223C200.563 422.112 202.503 422.92 203.877 423.526C206.504 424.658 208.727 425.709 211.151 427.285C211.151 427.285 213.253 428.579 214.425 430.438C214.788 431.044 215.112 431.731 215.314 432.458C215.395 432.782 215.395 433.105 215.435 433.388C215.422 433.653 215.362 433.95 215.286 434.233ZM290.978 434.166C290.844 434.135 290.706 434.119 290.563 434.119L225.5 434.119C225.379 434.119 225.26 434.13 225.145 434.153L224.513 408.958L255.067 408.869C258.801 411.31 261.23 413.073 262.354 414.158C264.039 415.786 265.844 417.291 267.807 418.59C272.55 421.701 275.014 421.658 282.228 425.049C284.183 425.944 286.06 426.963 287.899 428.103C289.738 429.243 290.366 430.525 290.885 432.457C290.971 432.779 290.977 433.102 291.022 433.384C291.028 433.703 291.011 433.958 290.978 434.166Z" fill="#474961" fill-opacity="1.000000" fill-rule="nonzero"/>
		<path id="Base" d="M191.144 437.35C191.104 437.324 191.065 437.297 191.026 437.268L150.453 407.037C149.645 406.43 149.483 405.258 150.089 404.45C150.696 403.642 151.868 403.48 152.676 404.086L192.815 433.994L214.667 433.994C215.678 433.994 216.526 434.843 216.526 435.854C216.526 436.864 215.678 437.713 214.667 437.713L192.239 437.713C191.828 437.713 191.45 437.579 191.144 437.35ZM225.7 434.075L290.763 434.075C291.767 434.075 292.581 434.89 292.581 435.894C292.581 436.898 291.767 437.713 290.763 437.713L225.7 437.713C224.695 437.713 223.881 436.898 223.881 435.894C223.881 434.89 224.695 434.075 225.7 434.075Z" fill="#FF5645" fill-opacity="1.000000" fill-rule="nonzero"/>
		<path id="Vector" d="M268.745 331.303C265.734 347.132 264.502 370.333 267.455 384.938C267.455 384.938 270.521 410.037 268.373 410.198C267.852 410.239 262.312 410.481 261.726 410.521C247.143 411.492 221.819 413.432 218.043 413.432C215.526 413.432 214.267 411.815 214.267 408.582L213.446 399.9L213.446 399.829C210.661 403.153 207.77 406.599 204.772 410.167C200.313 411.491 193.569 409.595 184.539 404.479C175.509 399.364 168.519 394.32 163.57 389.35C161.186 387.814 155.383 379.32 156.919 377.097L167.062 362.305L173.124 353.453C174.821 350.947 176.103 349.286 177.921 346.659C177.921 346.619 178.247 346.138 178.247 346.098C177.6 346.098 178.337 345.572 173.73 345.532C169.123 345.491 144.31 344.966 134.814 331.265C131.025 325.799 130.732 319.746 130.449 317.038C129.398 306.502 132.177 297.965 138.786 291.424C140.556 290.124 141.859 289.353 142.694 289.11C144.027 288.706 151.059 288.504 152.433 288.423L180.641 288.059C194.063 287.881 205.27 287.729 214.261 287.604L214.267 287.534L214.261 287.604C232.43 287.351 241.55 287.206 241.622 287.17C241.784 287.089 259.218 287.817 263.905 290.524C272.884 295.786 277.606 312.365 268.745 331.303Z" fill="#FFC855" fill-opacity="1.000000" fill-rule="nonzero"/>
		<g opacity="0.200000">
			<path id="Shadow Leg" d="M268.657 331.461C265.658 347.289 264.436 370.431 267.383 385.008C267.383 385.008 270.45 410.106 268.302 410.268C267.781 410.309 262.24 410.551 261.655 410.592C247.072 411.562 221.747 413.501 217.971 413.501C215.454 413.501 214.196 411.885 214.196 408.651L213.375 399.984C248.19 358.434 266.413 336.018 268.042 332.736C268.254 332.31 268.459 331.885 268.657 331.461ZM214.179 287.802L214.196 287.604L214.179 287.802ZM229.442 287.583C229.434 287.583 229.426 287.583 229.419 287.583L228.843 287.482L228.909 287.482C229.087 287.516 229.265 287.55 229.442 287.583Z" fill="#8C2A00" fill-opacity="1.000000" fill-rule="nonzero"/>
		</g>
		<path id="Shadow" d="M196.576 319.139C194.582 322.155 192.482 325.085 187.383 332.061C182.268 339.06 180.161 342 178.148 345.045C177.902 345.418 178.004 345.919 178.376 346.166C178.749 346.412 179.25 346.31 179.496 345.937C181.49 342.921 183.59 339.99 188.688 333.015C193.804 326.016 195.91 323.076 197.924 320.03C198.17 319.658 198.068 319.156 197.695 318.91C197.323 318.664 196.822 318.766 196.576 319.139Z" fill="#482D1F" fill-opacity="1.000000" fill-rule="nonzero"/>
		<path id="Rectangle" d="M264.221 215.547C265.593 216.619 265.836 218.601 264.765 219.973C264.748 219.994 264.732 220.014 264.715 220.035L248.018 240.328C247.161 241.37 245.629 241.539 244.566 240.708C243.503 239.877 243.296 238.351 244.099 237.267L259.748 216.154C260.785 214.755 262.759 214.462 264.158 215.499C264.179 215.515 264.2 215.531 264.221 215.547Z" fill="#474961" fill-opacity="1.000000" fill-rule="nonzero"/>
		<path id="Oval" d="M260.766 219.745C264.283 222.494 269.318 221.927 272.012 218.479C273.306 216.822 271.505 213.367 271.952 208.244C272.056 207.047 272.887 205.113 274.444 202.441L274.444 202.441C274.556 202.248 274.491 202 274.298 201.888C274.204 201.833 274.092 201.819 273.987 201.848C265.906 204.088 261.001 206.314 259.273 208.525C256.58 211.974 257.248 216.997 260.766 219.745Z" fill="#F2F6FB" fill-opacity="1.000000" fill-rule="nonzero"/>
		<path id="Paint" d="M264.589 214.895C265.417 215.542 268.134 213.867 268.53 214.744C269.86 217.684 269.819 221.658 272 218.866C273.361 217.124 271.541 213.55 272.069 208.209C272.192 206.958 273.082 204.925 274.736 202.11L274.736 202.11C274.849 201.917 274.785 201.67 274.593 201.557C274.497 201.5 274.382 201.486 274.275 201.517C265.872 203.955 260.761 206.337 258.944 208.664C257.315 210.749 258.622 211.831 261.104 212.172C261.972 212.291 262.559 211.27 263.782 211.034C265.143 210.772 263.783 214.265 264.589 214.895Z" fill="#474BFF" fill-opacity="1.000000" fill-rule="nonzero"/>
		<path id="Shirt" d="M185.784 215.568C195.83 219.056 202.192 229.368 200.315 240.272L191.881 287.91L145.212 288.746C142.54 288.266 140.656 287.147 139.56 285.391C137.916 282.756 138.364 279.416 138.588 278.129L147.01 231.026C149.091 219.073 160.361 211.026 172.301 212.918L173.117 209.077C173.21 208.64 173.639 208.361 174.076 208.454L185.934 210.975C186.371 211.068 186.65 211.497 186.557 211.934L185.784 215.568Z" fill="#FF4F03" fill-opacity="1.000000" fill-rule="nonzero"/>
		<path id="Skin" d="M176.117 195.5C175.268 204.123 174.812 208.477 174.75 208.563C174.686 208.652 178.347 209.443 185.735 210.936L186.391 207.6C186.563 207.665 186.741 207.73 186.923 207.797C190.341 209.112 190.137 208.994 190.381 209.071C192.938 209.713 195.12 209.635 195.523 209.587C198.913 209.286 202.765 203.034 204.386 194.072C204.535 193.342 204.563 192.613 204.631 191.885L204.828 184.646C204.88 183.028 204.529 181.417 203.737 180.016C203.403 179.416 203.07 178.855 202.698 178.417C198.439 172.913 190.78 174.057 189.409 174.243C189.247 174.246 189.086 174.289 188.925 174.292C187.396 174.682 186.017 174.423 184.562 174.408C183.915 174.419 183.399 174.954 183.37 175.601L183.349 185.95C183.325 186.92 180.526 184.707 179.433 184.645C177.491 184.517 175.374 187.544 174.681 189.537C173.911 191.693 174.595 193.864 175.872 195.256C175.953 195.341 176.034 195.422 176.117 195.5ZM202.843 267.054C203.701 266.762 204.557 266.469 205.41 266.174C211.943 263.921 218.372 261.624 225.349 259.07C227.7 258.234 228.708 257.816 230.395 257.146C235.892 254.942 256.577 246.474 257.567 245.685C261.052 244.191 258.764 231.777 258.764 227.242C252.991 229.781 245.054 233.034 234.955 236.999C232.917 238.048 231.447 239.413 230.395 240.55C228.678 240.68 214.944 243.069 202.29 245.185C202.637 245.126 202.984 245.067 203.332 245.008C203.25 241.778 202.654 236.848 200.089 231.495C200.728 234.288 200.835 237.258 200.316 240.271L199.359 245.674C191.957 246.902 185.303 247.962 182.178 248.318C182.001 247.807 180.61 241.774 178.005 230.221L153.919 236.998C154.471 240.317 155.798 245.638 157.898 252.959C161.048 263.941 162.264 272.143 170.504 274.545C172.424 275.107 174.914 275.021 180.441 273.684C185.643 272.425 190.476 271.042 195.125 269.583L191.889 287.856L191.872 287.856L191.882 287.911L236.21 287.294C238.55 287.221 235.823 285.622 228.031 282.497C220.239 279.372 212.296 276.714 204.202 274.525L203.959 266.675C203.587 266.802 203.215 266.928 202.843 267.054ZM148.66 225.78C154.582 228.344 160.315 228.643 165.859 226.675C171.403 224.708 174.22 220.292 174.31 213.424C169.47 211.951 164.388 212.352 159.064 214.627C153.741 216.902 150.273 220.62 148.66 225.78Z" fill="#DB9E75" fill-opacity="1.000000" fill-rule="nonzero"/>
		<path id="Shadow" d="M185.764 210.694L182.363 205.838L186.395 207.603L185.764 210.694Z" fill="#482D1F" fill-opacity="1.000000" fill-rule="nonzero"/>
		<path id="Eyes" d="M202.112 192.449C202.159 191.959 202.537 191.568 203.02 191.535C203.343 191.512 203.636 191.654 203.797 192.209C204.169 193.48 203.049 195.422 202.474 194.733C202.037 194.277 202.079 193.14 202.112 192.449ZM194.919 192.708C194.966 192.219 195.344 191.828 195.828 191.794C196.15 191.772 196.444 191.914 196.604 192.469C196.977 193.74 195.856 195.682 195.282 194.993C194.845 194.537 194.846 193.402 194.919 192.708Z" fill="#482D1F" fill-opacity="1.000000" fill-rule="nonzero"/>
		<path id="Mouth" d="M197.504 200.712C197.217 200.651 196.514 200.457 196.362 200.022C196.357 199.941 196.308 199.823 196.343 199.74C196.487 199.486 197.02 199.571 197.751 199.601C199.049 199.631 200.089 199.437 200.089 199.437C200.089 199.437 199.823 200.266 199.635 200.482C199.277 201.155 197.956 200.802 197.504 200.712Z" fill="#482D1F" fill-opacity="1.000000" fill-rule="nonzero"/>
		<path id="Hair" d="M204.918 189.133C205.316 189.024 205.443 188.529 205.141 188.266C204.756 187.969 204.123 187.608 203.314 187.624C201.656 187.659 199.909 188.754 201.722 189.194C202.879 189.519 204.161 189.307 204.918 189.133ZM197.098 189.68C197.495 189.571 197.623 189.076 197.28 188.816C196.895 188.519 196.262 188.158 195.413 188.177C193.754 188.211 192.011 189.347 193.821 189.747C195.018 190.068 196.3 189.857 197.098 189.68ZM176.141 201.461C177.636 200.46 178.652 198.888 179.188 196.744C178.451 196.535 177.316 196.084 176.395 195.046C175.158 193.653 174.474 191.522 175.246 189.447C175.938 187.455 177.932 185.883 179.874 186.011C180.967 186.073 181.826 186.665 181.948 186.743C183.299 187.73 183.888 189.014 183.888 189.014L184.761 191.232C186.151 190.255 188.947 186.551 193.15 180.121C195.484 179.839 197.287 179.645 198.558 179.537C200.464 179.374 202.509 179.565 203.279 179.256C203.224 179.393 203.169 179.531 203.113 179.668C203.25 179.429 203.32 179.296 203.32 179.296C203.359 179.174 202.702 178.58 202.7 178.499C198.687 173.192 191.299 173.685 189.928 173.871C189.767 173.874 189.606 173.917 189.443 173.879C187.185 174.161 185.287 174.234 183.994 174.297C177.855 174.526 175.457 173.759 172.372 175.349C171.812 175.642 170.49 176.352 169.343 177.787C168.68 178.59 168.182 179.444 167.812 180.307C164.289 180.192 161.788 181.943 160.308 185.561C158.332 190.392 161.362 194.767 165.136 196.556C166.727 200.521 171.09 203.376 174.605 202.234C175.237 202.029 175.75 201.771 176.141 201.461Z" fill="#482D1F" fill-opacity="1.000000" fill-rule="nonzero"/>
		<path id="Nose" d="M200.039 192.931L200.033 192.873L200.038 192.901L200.039 192.931ZM200.818 197.153L200.824 197.198C200.854 197.638 200.582 198.067 200.148 198.171C200.068 198.185 200.023 198.191 199.979 198.197C199.554 198.254 199.248 198.28 198.15 198.357C197.927 198.373 197.734 198.205 197.719 197.982C197.703 197.759 197.871 197.566 198.094 197.551C199.172 197.475 199.47 197.45 199.87 197.396C199.912 197.39 199.953 197.384 199.995 197.378C199.986 197.379 200.016 197.33 200.018 197.27L199.238 193.019L199.231 192.96L199.146 190.576C199.137 190.353 199.312 190.165 199.535 190.157C199.758 190.149 199.945 190.324 199.953 190.546L200.038 192.901L200.818 197.153Z" fill="#482D1F" fill-opacity="1.000000" fill-rule="nonzero"/>
		<path id="Shadow" d="M177.58 229.942L177.58 226.684C177.58 226.349 177.852 226.077 178.187 226.077C178.521 226.077 178.793 226.349 178.793 226.684L178.793 229.942C178.793 230.277 178.521 230.548 178.187 230.548C177.852 230.548 177.58 230.277 177.58 229.942Z" fill="#482D1F" fill-opacity="1.000000" fill-rule="nonzero"/>
		<g opacity="0.200000">
			<path id="Shadow Arms" d="M200.101 231.496C200.795 232.911 201.479 234.75 202.153 237.015C202.826 239.28 203.214 241.945 203.316 245.01L199.355 245.657C199.715 243.698 199.964 242.294 200.101 241.447C200.361 239.849 200.643 238.437 200.643 237.33C200.643 235.344 200.463 233.399 200.101 231.496ZM195.123 269.582L203.957 266.676L204.202 274.524C218.627 278.848 228.732 282.444 234.518 285.312C235.683 285.89 236.407 286.303 236.689 286.552C236.808 286.662 236.901 286.758 236.969 286.839C237.135 287.037 236.969 287.24 236.443 287.277C236.093 287.302 221.235 287.5 191.871 287.87L195.123 269.582Z" fill="#8C2A00" fill-opacity="1.000000" fill-rule="nonzero"/>
		</g>
	</g>
</svg>
